<svg width="540" height="95" viewBox="0 0 550 100" xmlns="http://www.w3.org/2000/svg"><g id="svgGroup" stroke-linecap="round" fill-rule="evenodd" ><path d="M 4.204 71 L 0.604 70.5 L 1.404 64.1 Q 12.564 65.577 19.347 65.842 A 70.929 70.929 0 0 0 22.104 65.9 A 22.803 22.803 0 0 0 27.826 65.247 Q 36.904 62.887 36.904 52 A 15.164 15.164 0 0 0 36.633 49.026 Q 35.965 45.692 33.654 43.95 A 12.389 12.389 0 0 0 31.454 42.666 Q 27.97 41.035 21.504 39.8 Q 11.504 37.663 6.471 34.467 A 17.116 17.116 0 0 1 4.904 33.35 A 11.908 11.908 0 0 1 1.248 28.114 Q 0.004 24.786 0.004 20.1 Q 0.004 2.835 19.217 1.596 A 47.985 47.985 0 0 1 22.304 1.5 A 88.228 88.228 0 0 1 28.187 1.711 Q 31.463 1.931 35.182 2.379 A 179.799 179.799 0 0 1 39.804 3 L 43.204 3.5 L 42.504 10 Q 28.604 8.3 22.804 8.3 A 29.268 29.268 0 0 0 17.376 8.757 Q 7.804 10.573 7.804 19.6 A 17.895 17.895 0 0 0 8.048 22.668 Q 8.72 26.524 11.254 28.25 A 14.328 14.328 0 0 0 13.423 29.425 Q 16.963 31.017 23.761 32.609 A 141.035 141.035 0 0 0 25.254 32.95 A 68.887 68.887 0 0 1 30.633 34.361 Q 35.806 35.963 38.875 38.044 A 15.167 15.167 0 0 1 40.204 39.05 A 11.284 11.284 0 0 1 43.425 43.797 Q 44.125 45.668 44.41 47.998 A 28.124 28.124 0 0 1 44.604 51.4 A 29.457 29.457 0 0 1 43.47 59.958 Q 39.597 72.7 22.504 72.7 A 81.489 81.489 0 0 1 16.779 72.48 Q 11.251 72.089 4.204 71 Z M 64.104 30.5 L 64.104 71.8 L 56.604 71.8 L 56.604 0 L 64.104 0 L 64.104 24.6 A 41.927 41.927 0 0 1 71.472 21.872 A 31.668 31.668 0 0 1 79.504 20.8 Q 84.875 20.8 88.357 22.358 A 10.256 10.256 0 0 1 92.954 26.2 A 15.967 15.967 0 0 1 94.66 30.024 Q 95.926 34.063 96.273 40.337 A 91.908 91.908 0 0 1 96.404 45.4 L 96.404 71.8 L 88.904 71.8 L 88.904 45.6 A 83.133 83.133 0 0 0 88.784 40.947 Q 88.408 34.268 86.854 31.35 A 6.523 6.523 0 0 0 83.392 28.346 Q 82.165 27.85 80.595 27.645 A 18.484 18.484 0 0 0 78.204 27.5 Q 71.904 27.5 66.004 29.8 L 64.104 30.5 Z M 349.504 54.6 L 350.404 53 Q 342.979 49.616 342.533 39.253 A 31.473 31.473 0 0 1 342.504 37.9 Q 342.504 20.919 360.946 20.801 A 40.481 40.481 0 0 1 361.204 20.8 A 40.504 40.504 0 0 1 366.794 21.171 A 33.434 33.434 0 0 1 370.104 21.8 L 371.604 22.1 L 386.404 21.7 L 386.404 28.1 L 376.904 27.9 A 10.271 10.271 0 0 1 379.327 31.895 Q 379.875 33.489 380.081 35.436 A 23.485 23.485 0 0 1 380.204 37.9 A 29.832 29.832 0 0 1 379.876 42.495 Q 379.508 44.852 378.725 46.706 A 10.893 10.893 0 0 1 375.554 51.05 A 14.193 14.193 0 0 1 371.327 53.331 Q 367.432 54.705 361.702 54.794 A 51.628 51.628 0 0 1 360.904 54.8 Q 358.204 54.8 356.004 54.4 A 73.768 73.768 0 0 0 355.392 55.941 Q 354.478 58.328 354.267 59.504 A 3.472 3.472 0 0 0 354.204 60.1 A 7.722 7.722 0 0 0 354.308 61.424 Q 354.428 62.11 354.686 62.626 A 2.626 2.626 0 0 0 356.104 63.95 A 5.783 5.783 0 0 0 357.194 64.224 Q 359.908 64.692 367.351 64.7 A 241.689 241.689 0 0 0 367.604 64.7 A 48.773 48.773 0 0 1 372.323 64.912 Q 378.32 65.497 381.404 67.7 A 8.531 8.531 0 0 1 384.2 71.246 Q 385.491 74.119 385.595 78.602 A 34.424 34.424 0 0 1 385.604 79.4 A 15.839 15.839 0 0 1 383.872 87.041 Q 380.334 93.58 369.569 94.942 A 49.279 49.279 0 0 1 363.404 95.3 Q 354.011 95.3 349.06 93.309 A 12.531 12.531 0 0 1 346.654 92.05 A 9.838 9.838 0 0 1 343.055 87.37 Q 341.904 84.433 341.904 80.2 A 15.302 15.302 0 0 1 342.137 77.453 Q 342.551 75.184 343.704 73.55 Q 345.33 71.247 348.996 68.413 A 55.424 55.424 0 0 1 349.804 67.8 Q 347.534 66.259 347.104 62.681 A 14.967 14.967 0 0 1 347.004 60.9 A 4.098 4.098 0 0 1 347.141 59.944 Q 347.514 58.429 348.901 55.738 A 58.594 58.594 0 0 1 349.504 54.6 Z M 297.904 31.2 L 297.904 71.8 L 290.404 71.8 L 290.404 21.8 L 297.804 21.8 L 297.804 25.3 Q 305.904 20.8 313.304 20.8 Q 318.675 20.8 322.157 22.358 A 10.256 10.256 0 0 1 326.754 26.2 A 15.967 15.967 0 0 1 328.46 30.024 Q 329.726 34.063 330.073 40.337 A 91.908 91.908 0 0 1 330.204 45.4 L 330.204 71.8 L 322.804 71.8 L 322.804 45.6 A 83.133 83.133 0 0 0 322.684 40.947 Q 322.308 34.268 320.754 31.35 A 6.494 6.494 0 0 0 317.336 28.375 Q 315.199 27.5 312.004 27.5 A 24.168 24.168 0 0 0 307.867 27.871 A 29.913 29.913 0 0 0 305.254 28.45 Q 301.704 29.4 299.804 30.3 L 297.904 31.2 Z M 466.304 71.4 L 463.304 70.9 L 463.704 64.4 A 255.446 255.446 0 0 0 469.054 65.144 Q 474.65 65.857 478.492 66.038 A 51.49 51.49 0 0 0 480.904 66.1 A 29.313 29.313 0 0 0 484.105 65.937 Q 487.49 65.564 489.606 64.338 A 8.582 8.582 0 0 0 489.754 64.25 A 6.08 6.08 0 0 0 492.613 60.069 A 10.069 10.069 0 0 0 492.804 58.05 Q 492.804 55.524 491.928 53.943 A 4.692 4.692 0 0 0 490.204 52.15 A 9.767 9.767 0 0 0 488.645 51.432 Q 486.053 50.463 480.926 49.556 A 123.904 123.904 0 0 0 478.804 49.2 A 60.892 60.892 0 0 1 474.489 48.365 Q 470.303 47.383 467.729 45.991 A 12.522 12.522 0 0 1 466.304 45.1 A 7.88 7.88 0 0 1 463.711 41.709 Q 463.123 40.319 462.847 38.54 A 22.537 22.537 0 0 1 462.604 35.1 A 16.288 16.288 0 0 1 463.152 30.742 A 11.149 11.149 0 0 1 467.754 24.3 A 19.622 19.622 0 0 1 474.769 21.378 Q 477.476 20.8 480.604 20.8 A 69.134 69.134 0 0 1 485.389 20.981 Q 490.01 21.303 495.904 22.2 L 498.704 22.7 L 498.504 29.1 Q 489.355 27.781 483.399 27.549 A 61.756 61.756 0 0 0 481.004 27.5 Q 470.403 27.5 470.112 34.689 A 10.175 10.175 0 0 0 470.104 35.1 A 7.629 7.629 0 0 0 470.324 36.997 A 4.744 4.744 0 0 0 472.604 40.05 Q 474.775 41.309 481.772 42.644 A 141.691 141.691 0 0 0 484.004 43.05 A 61.428 61.428 0 0 1 488.365 43.962 Q 492.593 45.02 495.176 46.473 A 12.606 12.606 0 0 1 496.604 47.4 A 7.976 7.976 0 0 1 499.067 50.635 Q 500.227 53.272 500.299 57.349 A 30.959 30.959 0 0 1 500.304 57.9 A 18.858 18.858 0 0 1 499.827 62.287 Q 499.069 65.454 497.109 67.626 A 11.339 11.339 0 0 1 495.354 69.2 A 16.346 16.346 0 0 1 490.687 71.497 Q 486.619 72.8 480.904 72.8 A 67.797 67.797 0 0 1 475.504 72.569 Q 471.292 72.231 466.304 71.4 Z M 537.704 21.8 L 537.704 28.3 L 521.804 28.3 L 521.804 52.2 Q 521.804 59.949 522.819 62.908 A 6.202 6.202 0 0 0 523.054 63.5 A 4.111 4.111 0 0 0 525.26 65.567 Q 526.728 66.2 529.004 66.2 L 537.904 65.6 L 538.404 71.8 Q 532.931 72.699 529.593 72.863 A 28.338 28.338 0 0 1 528.204 72.9 A 25.018 25.018 0 0 1 524.425 72.636 Q 519.67 71.907 517.456 69.165 A 7.659 7.659 0 0 1 517.404 69.1 Q 514.404 65.3 514.404 54.6 L 514.404 28.3 L 507.304 28.3 L 507.304 21.8 L 514.404 21.8 L 514.404 6.5 L 521.804 6.5 L 521.804 21.8 L 537.704 21.8 Z M 170.604 94 L 163.104 94 L 163.104 21.8 L 170.504 21.8 L 170.504 25.4 Q 178.104 20.8 185.504 20.8 A 23.543 23.543 0 0 1 190.686 21.333 Q 196.281 22.596 199.304 26.85 Q 203.081 32.165 203.541 43.537 A 80.954 80.954 0 0 1 203.604 46.8 Q 203.604 59.048 199.683 65.201 A 14.953 14.953 0 0 1 198.554 66.75 A 15.181 15.181 0 0 1 192.102 71.191 Q 189.569 72.147 186.414 72.535 A 37.832 37.832 0 0 1 181.804 72.8 A 58.986 58.986 0 0 1 175.258 72.452 A 46.632 46.632 0 0 1 170.604 71.7 L 170.604 94 Z M 223.304 94 L 215.804 94 L 215.804 21.8 L 223.204 21.8 L 223.204 25.4 Q 230.804 20.8 238.204 20.8 A 23.543 23.543 0 0 1 243.386 21.333 Q 248.981 22.596 252.004 26.85 Q 255.781 32.165 256.241 43.537 A 80.954 80.954 0 0 1 256.304 46.8 Q 256.304 59.048 252.383 65.201 A 14.953 14.953 0 0 1 251.254 66.75 A 15.181 15.181 0 0 1 244.802 71.191 Q 242.269 72.147 239.114 72.535 A 37.832 37.832 0 0 1 234.504 72.8 A 58.986 58.986 0 0 1 227.958 72.452 A 46.632 46.632 0 0 1 223.304 71.7 L 223.304 94 Z M 434.904 64.9 L 434.904 71.8 L 396.804 71.8 L 396.804 2.6 L 404.504 2.6 L 404.504 64.9 L 434.904 64.9 Z M 108.47 39.776 A 60.675 60.675 0 0 0 108.104 46.7 A 75.758 75.758 0 0 0 108.141 49.098 Q 108.375 56.478 110.085 61.451 A 18.895 18.895 0 0 0 112.704 66.6 A 13.381 13.381 0 0 0 118.289 70.884 Q 120.635 71.898 123.639 72.375 A 37.488 37.488 0 0 0 129.504 72.8 A 37.68 37.68 0 0 0 135.26 72.393 Q 138.238 71.931 140.575 70.946 A 13.44 13.44 0 0 0 146.304 66.6 Q 149.646 62.095 150.56 53.631 A 64.804 64.804 0 0 0 150.904 46.7 Q 150.904 33 146.054 26.9 A 14.072 14.072 0 0 0 140.987 22.949 Q 138.58 21.804 135.493 21.269 A 34.875 34.875 0 0 0 129.554 20.8 Q 123.547 20.8 119.335 22.422 A 14.681 14.681 0 0 0 113.004 26.9 Q 109.444 31.332 108.47 39.776 Z M 276.004 71.8 L 268.504 71.8 L 268.504 21.8 L 276.004 21.8 L 276.004 71.8 Z M 450.904 71.8 L 443.404 71.8 L 443.404 21.8 L 450.904 21.8 L 450.904 71.8 Z M 172.504 30.5 L 170.604 31.5 L 170.604 65.2 A 150.572 150.572 0 0 0 173.942 65.681 Q 177.485 66.149 179.935 66.263 A 31.702 31.702 0 0 0 181.404 66.3 A 22.325 22.325 0 0 0 185.471 65.956 Q 187.701 65.542 189.406 64.629 A 9.548 9.548 0 0 0 192.754 61.7 Q 196.004 57.1 196.004 46.7 Q 196.004 36.3 193.054 31.9 Q 190.104 27.5 184.404 27.5 A 20.649 20.649 0 0 0 180.887 27.816 A 27.181 27.181 0 0 0 177.954 28.5 Q 174.581 29.478 172.593 30.456 A 15.715 15.715 0 0 0 172.504 30.5 Z M 225.204 30.5 L 223.304 31.5 L 223.304 65.2 A 150.572 150.572 0 0 0 226.642 65.681 Q 230.185 66.149 232.635 66.263 A 31.702 31.702 0 0 0 234.104 66.3 A 22.325 22.325 0 0 0 238.171 65.956 Q 240.401 65.542 242.106 64.629 A 9.548 9.548 0 0 0 245.454 61.7 Q 248.704 57.1 248.704 46.7 Q 248.704 36.3 245.754 31.9 Q 242.804 27.5 237.104 27.5 A 20.649 20.649 0 0 0 233.587 27.816 A 27.181 27.181 0 0 0 230.654 28.5 Q 227.281 29.478 225.293 30.456 A 15.715 15.715 0 0 0 225.204 30.5 Z M 117.404 59.612 A 12.401 12.401 0 0 0 118.454 61.9 Q 121.037 66.189 129.13 66.297 A 31.621 31.621 0 0 0 129.554 66.3 A 25.408 25.408 0 0 0 133.304 66.045 Q 137.876 65.36 139.976 62.837 A 6.991 6.991 0 0 0 140.604 61.95 A 13.21 13.21 0 0 0 141.861 58.977 Q 142.832 55.744 143.101 50.714 A 77.28 77.28 0 0 0 143.204 46.6 Q 143.204 35.6 140.304 31.45 A 8.61 8.61 0 0 0 136.416 28.437 Q 134.878 27.802 132.917 27.522 A 23.82 23.82 0 0 0 129.554 27.3 Q 121.704 27.3 118.754 31.45 A 11.659 11.659 0 0 0 117.279 34.465 Q 116.207 37.62 115.914 42.569 A 67.532 67.532 0 0 0 115.804 46.55 Q 115.804 55.058 117.404 59.612 Z M 365.704 71.3 L 354.904 70.8 A 34.14 34.14 0 0 0 353.218 72.103 Q 351.281 73.706 350.454 75 Q 349.413 76.63 349.314 79.079 A 12.963 12.963 0 0 0 349.304 79.6 A 14.907 14.907 0 0 0 349.512 82.186 Q 349.759 83.586 350.301 84.663 A 6.018 6.018 0 0 0 352.254 86.95 Q 355.204 89 363.154 89 Q 369.735 89 373.232 87.493 A 9.305 9.305 0 0 0 374.554 86.8 Q 378 84.603 378.004 79.462 A 15.043 15.043 0 0 0 378.004 79.45 A 16.441 16.441 0 0 0 377.867 77.236 Q 377.418 73.948 375.504 72.8 A 7.098 7.098 0 0 0 373.867 72.118 Q 371.214 71.335 366.166 71.302 A 68.836 68.836 0 0 0 365.704 71.3 Z M 350.004 37.9 Q 350.004 43.8 352.654 46.3 A 7.733 7.733 0 0 0 355.22 47.86 Q 357.508 48.74 360.934 48.796 A 28.8 28.8 0 0 0 361.404 48.8 A 23.578 23.578 0 0 0 364.398 48.624 Q 368.195 48.136 370.104 46.3 A 7.23 7.23 0 0 0 371.781 43.715 Q 372.646 41.539 372.7 38.288 A 26.363 26.363 0 0 0 372.704 37.85 A 21.532 21.532 0 0 0 372.521 34.932 Q 372.056 31.547 370.415 29.722 A 6.162 6.162 0 0 0 370.104 29.4 Q 367.62 27.012 361.943 26.905 A 28.64 28.64 0 0 0 361.404 26.9 A 23.046 23.046 0 0 0 358.326 27.091 Q 354.892 27.555 352.988 29.15 A 6.523 6.523 0 0 0 352.654 29.45 Q 350.004 32 350.004 37.9 Z M 276.004 10.5 L 268.504 10.5 L 268.504 1.8 L 276.004 1.8 L 276.004 10.5 Z M 450.904 10.5 L 443.404 10.5 L 443.404 1.8 L 450.904 1.8 L 450.904 10.5 Z" vector-effect="non-scaling-stroke"/></g></svg>